<svg width="751" height="943" viewBox="0 0 751 943" fill="none" xmlns="http://www.w3.org/2000/svg">
<path opacity="0.1" d="M230.624 143.32L226.925 138.229L232.017 134.53C232.657 134.065 232.801 133.156 232.336 132.515C231.87 131.874 230.962 131.73 230.321 132.196L225.229 135.895L221.531 130.803C221.065 130.162 220.157 130.018 219.516 130.484C218.875 130.949 218.731 131.858 219.197 132.498L222.895 137.59L217.804 141.289C217.163 141.754 217.019 142.663 217.484 143.304C217.95 143.944 218.858 144.088 219.499 143.623L224.591 139.924L228.289 145.016C228.755 145.657 229.664 145.801 230.304 145.335C230.955 144.871 231.097 143.973 230.624 143.32Z" fill="white"/>
<path opacity="0.1" d="M571.62 197.317L567.921 192.226L573.013 188.527C573.654 188.062 573.798 187.153 573.332 186.512C572.867 185.871 571.958 185.727 571.317 186.193L566.226 189.892L562.527 184.8C562.062 184.159 561.153 184.015 560.512 184.481C559.871 184.946 559.727 185.855 560.193 186.495L563.892 191.587L558.8 195.286C558.159 195.751 558.015 196.66 558.481 197.301C558.946 197.941 559.855 198.085 560.495 197.62L565.587 193.921L569.286 199.013C569.751 199.654 570.66 199.798 571.301 199.332C571.951 198.868 572.094 197.969 571.62 197.317Z" fill="white"/>
<path opacity="0.1" d="M549.009 164.854L547.106 162.233L549.726 160.33C550.056 160.09 550.13 159.623 549.89 159.293C549.651 158.963 549.183 158.889 548.854 159.128L546.233 161.032L544.33 158.412C544.09 158.082 543.623 158.008 543.293 158.247C542.963 158.487 542.889 158.954 543.128 159.284L545.032 161.905L542.412 163.808C542.082 164.048 542.008 164.515 542.247 164.845C542.487 165.175 542.954 165.249 543.284 165.009L545.905 163.106L547.808 165.726C548.048 166.056 548.515 166.13 548.845 165.89C549.18 165.652 549.253 165.189 549.009 164.854Z" fill="white"/>
<path opacity="0.1" d="M173.77 191.76H230.53V248.52H173.77V191.76Z" stroke="white" stroke-width="2" stroke-miterlimit="10"/>
<path opacity="0.1" d="M145.39 163.38H202.15V220.14H145.39V163.38Z" fill="white"/>
<path opacity="0.1" d="M587.102 570.408L514.292 632.987C497.01 612.878 499.3 582.569 519.408 565.286C539.517 548.004 569.82 550.3 587.102 570.408Z" fill="white"/>
<path d="M727.278 0H723V17.5199H727.278V0Z" fill="black" fill-opacity="0.2"/>
<path d="M738.144 0H733.867V17.5199H738.144V0Z" fill="black" fill-opacity="0.2"/>
<path d="M749.011 0H744.733V17.5199H749.011V0Z" fill="black" fill-opacity="0.2"/>
<path d="M727.278 24.9516H723V42.4715H727.278V24.9516Z" fill="black" fill-opacity="0.2"/>
<path d="M738.144 24.9516H733.867V42.4715H738.144V24.9516Z" fill="black" fill-opacity="0.2"/>
<path d="M738.144 49.8951H733.867V67.4151H738.144V49.8951Z" fill="black" fill-opacity="0.2"/>
<path d="M749.011 49.8951H744.733V67.4151H749.011V49.8951Z" fill="black" fill-opacity="0.2"/>
<path d="M727.278 74.8469H723V92.3668H727.278V74.8469Z" fill="black" fill-opacity="0.2"/>
<path d="M749.011 74.8469H744.733V92.3668H749.011V74.8469Z" fill="black" fill-opacity="0.2"/>
<path d="M727.278 99.7985H723V117.318H727.278V99.7985Z" fill="black" fill-opacity="0.2"/>
<path d="M738.144 99.7985H733.867V117.318H738.144V99.7985Z" fill="black" fill-opacity="0.2"/>
<path d="M727.278 124.75H723V142.27H727.278V124.75Z" fill="black" fill-opacity="0.2"/>
<path d="M738.144 124.75H733.867V142.27H738.144V124.75Z" fill="black" fill-opacity="0.2"/>
<path d="M749.011 124.75H744.733V142.27H749.011V124.75Z" fill="black" fill-opacity="0.2"/>
<path d="M77.8768 868.246C76.1559 868.246 74.7537 866.844 74.7537 865.123C74.7537 863.402 76.1559 862 77.8768 862C79.5978 862 81 863.402 81 865.123C81 866.855 79.5978 868.246 77.8768 868.246ZM81 883.809C81 882.088 79.5978 880.686 77.8768 880.686C76.1559 880.686 74.7537 882.088 74.7537 883.809C74.7537 885.53 76.1559 886.932 77.8768 886.932C79.5978 886.932 81 885.54 81 883.809ZM81 902.495C81 900.774 79.5978 899.372 77.8768 899.372C76.1559 899.372 74.7537 900.774 74.7537 902.495C74.7537 904.216 76.1559 905.618 77.8768 905.618C79.5978 905.628 81 904.226 81 902.495ZM81 921.191C81 919.47 79.5978 918.068 77.8768 918.068C76.1559 918.068 74.7537 919.47 74.7537 921.191C74.7537 922.912 76.1559 924.314 77.8768 924.314C79.5978 924.314 81 922.912 81 921.191ZM81 939.877C81 938.156 79.5978 936.754 77.8768 936.754C76.1559 936.754 74.7537 938.156 74.7537 939.877C74.7537 941.598 76.1559 943 77.8768 943C79.5978 943 81 941.598 81 939.877ZM62.3142 865.123C62.3142 863.402 60.912 862 59.1911 862C57.4701 862 56.0679 863.402 56.0679 865.123C56.0679 866.844 57.4701 868.246 59.1911 868.246C60.912 868.246 62.3142 866.855 62.3142 865.123ZM62.3142 883.809C62.3142 882.088 60.912 880.686 59.1911 880.686C57.4701 880.686 56.0679 882.088 56.0679 883.809C56.0679 885.53 57.4701 886.932 59.1911 886.932C60.912 886.932 62.3142 885.54 62.3142 883.809ZM62.3142 902.495C62.3142 900.774 60.912 899.372 59.1911 899.372C57.4701 899.372 56.0679 900.774 56.0679 902.495C56.0679 904.216 57.4701 905.618 59.1911 905.618C60.912 905.628 62.3142 904.226 62.3142 902.495ZM62.3142 921.191C62.3142 919.47 60.912 918.068 59.1911 918.068C57.4701 918.068 56.0679 919.47 56.0679 921.191C56.0679 922.912 57.4701 924.314 59.1911 924.314C60.912 924.314 62.3142 922.912 62.3142 921.191ZM62.3142 939.877C62.3142 938.156 60.912 936.754 59.1911 936.754C57.4701 936.754 56.0679 938.156 56.0679 939.877C56.0679 941.598 57.4701 943 59.1911 943C60.912 943 62.3142 941.598 62.3142 939.877ZM43.6178 865.123C43.6178 863.402 42.2156 862 40.4947 862C38.7738 862 37.3715 863.402 37.3715 865.123C37.3715 866.844 38.7738 868.246 40.4947 868.246C42.2262 868.246 43.6178 866.855 43.6178 865.123ZM43.6178 883.809C43.6178 882.088 42.2156 880.686 40.4947 880.686C38.7738 880.686 37.3715 882.088 37.3715 883.809C37.3715 885.53 38.7738 886.932 40.4947 886.932C42.2262 886.932 43.6178 885.54 43.6178 883.809ZM43.6178 902.495C43.6178 900.774 42.2156 899.372 40.4947 899.372C38.7738 899.372 37.3715 900.774 37.3715 902.495C37.3715 904.216 38.7738 905.618 40.4947 905.618C42.2262 905.628 43.6178 904.226 43.6178 902.495ZM43.6178 921.191C43.6178 919.47 42.2156 918.068 40.4947 918.068C38.7738 918.068 37.3715 919.47 37.3715 921.191C37.3715 922.912 38.7738 924.314 40.4947 924.314C42.2262 924.314 43.6178 922.912 43.6178 921.191ZM43.6178 939.877C43.6178 938.156 42.2156 936.754 40.4947 936.754C38.7738 936.754 37.3715 938.156 37.3715 939.877C37.3715 941.598 38.7738 943 40.4947 943C42.2262 943 43.6178 941.598 43.6178 939.877ZM24.932 865.123C24.932 863.402 23.5298 862 21.8089 862C20.088 862 18.6858 863.402 18.6858 865.123C18.6858 866.844 20.088 868.246 21.8089 868.246C23.5404 868.246 24.932 866.855 24.932 865.123ZM24.932 883.809C24.932 882.088 23.5298 880.686 21.8089 880.686C20.088 880.686 18.6858 882.088 18.6858 883.809C18.6858 885.53 20.088 886.932 21.8089 886.932C23.5404 886.932 24.932 885.54 24.932 883.809ZM24.932 902.495C24.932 900.774 23.5298 899.372 21.8089 899.372C20.088 899.372 18.6858 900.774 18.6858 902.495C18.6858 904.216 20.088 905.618 21.8089 905.618C23.5404 905.628 24.932 904.226 24.932 902.495ZM24.932 921.191C24.932 919.47 23.5298 918.068 21.8089 918.068C20.088 918.068 18.6858 919.47 18.6858 921.191C18.6858 922.912 20.088 924.314 21.8089 924.314C23.5404 924.314 24.932 922.912 24.932 921.191ZM24.932 939.877C24.932 938.156 23.5298 936.754 21.8089 936.754C20.088 936.754 18.6858 938.156 18.6858 939.877C18.6858 941.598 20.088 943 21.8089 943C23.5404 943 24.932 941.598 24.932 939.877ZM6.2463 865.123C6.2463 863.402 4.84407 862 3.12315 862C1.40223 862 0 863.402 0 865.123C0 866.844 1.40223 868.246 3.12315 868.246C4.84407 868.246 6.2463 866.855 6.2463 865.123ZM6.2463 883.809C6.2463 882.088 4.84407 880.686 3.12315 880.686C1.40223 880.686 0 882.088 0 883.809C0 885.53 1.40223 886.932 3.12315 886.932C4.84407 886.932 6.2463 885.54 6.2463 883.809ZM6.2463 902.495C6.2463 900.774 4.84407 899.372 3.12315 899.372C1.40223 899.372 0 900.774 0 902.495C0 904.216 1.40223 905.618 3.12315 905.618C4.84407 905.618 6.2463 904.226 6.2463 902.495ZM6.2463 921.191C6.2463 919.47 4.84407 918.068 3.12315 918.068C1.40223 918.068 0 919.47 0 921.191C0 922.912 1.40223 924.314 3.12315 924.314C4.84407 924.314 6.2463 922.912 6.2463 921.191ZM6.2463 939.877C6.2463 938.156 4.84407 936.754 3.12315 936.754C1.40223 936.754 0 938.156 0 939.877C0 941.598 1.40223 943 3.12315 943C4.84407 943 6.2463 941.598 6.2463 939.877Z" fill="black" fill-opacity="0.2"/>
</svg>
