<svg width="1008" height="240" viewBox="0 0 1008 240" fill="none" xmlns="http://www.w3.org/2000/svg">
<path d="M270.547 3.06138C272.502 5.02227 273.599 7.67794 273.599 10.4465C273.599 13.215 272.502 15.8706 270.547 17.8315L150.336 138.037L197.591 185.292C199.491 187.263 200.541 189.902 200.516 192.64C200.49 195.378 199.391 197.996 197.454 199.932C195.518 201.868 192.899 202.966 190.161 202.99C187.423 203.014 184.784 201.963 182.814 200.062L135.565 152.813L117.247 171.125L98.9287 152.813L51.6737 200.062C49.7071 201.982 47.063 203.049 44.3145 203.033C41.5661 203.016 38.9349 201.917 36.9914 199.974C35.0479 198.03 33.9488 195.399 33.9324 192.651C33.916 189.902 34.9835 187.258 36.9036 185.292L84.1586 138.037L36.9036 90.7883C35.9146 89.8227 35.1272 88.6705 34.5868 87.3983C34.0464 86.1262 33.7639 84.7595 33.7557 83.3774C33.7474 81.9953 34.0136 80.6252 34.5387 79.3467C35.0638 78.0682 35.8374 76.9066 36.8147 75.9293C37.7921 74.952 38.9536 74.1783 40.2321 73.6532C41.5106 73.1281 42.8806 72.862 44.2628 72.8703C45.6449 72.8786 47.0116 73.1611 48.2838 73.7014C49.5559 74.2418 50.7081 75.0293 51.6737 76.0182L117.247 141.585L200.422 58.4101H21.2631V217.72H213.228V102.36L230.759 84.8289C232.003 83.5917 234.494 83.2348 234.494 86.3729V238.983H0.0166626V37.1437H221.705L255.787 3.06138C257.747 1.10252 260.405 0.00216675 263.176 0.00216675C265.947 0.00216675 268.604 1.10252 270.564 3.06138H270.547ZM364.257 182.557C363.099 182.543 361.955 182.299 360.891 181.841C359.827 181.383 358.865 180.718 358.059 179.886C357.253 179.054 356.619 178.071 356.195 176.993C355.771 175.915 355.564 174.764 355.586 173.606V172.482C347.014 180.133 336.008 184.497 324.522 184.801C297.089 184.801 277.5 160.457 277.5 134.422C277.5 108.673 297.086 84.322 324.522 84.322C336.033 84.4957 347.082 88.8752 355.586 96.6343V94.6734C355.586 92.3349 356.515 90.0921 358.169 88.4385C359.822 86.785 362.065 85.856 364.404 85.856C366.742 85.856 368.985 86.785 370.638 88.4385C372.292 90.0921 373.221 92.3349 373.221 94.6734V173.606C373.236 174.787 373.014 175.958 372.569 177.052C372.123 178.145 371.463 179.138 370.627 179.972C369.792 180.806 368.798 181.464 367.703 181.908C366.609 182.351 365.437 182.571 364.257 182.554V182.557ZM353.615 134.415C353.615 117.624 341.863 101.95 324.512 101.95C307.438 101.95 295.125 117.624 295.125 134.415C295.125 151.489 307.438 167.163 324.512 167.163C341.86 167.163 353.615 151.489 353.615 134.415ZM398.062 180.599H457.676C459.988 180.551 462.195 179.63 463.857 178.022C465.518 176.414 466.51 174.237 466.634 171.929C466.649 170.749 466.427 169.578 465.982 168.484C465.537 167.391 464.878 166.399 464.043 165.564C463.208 164.73 462.215 164.072 461.121 163.627C460.028 163.183 458.857 162.962 457.676 162.978H416.814L467.194 103.067C468.594 101.535 469.389 99.5462 469.432 97.4713C469.276 95.223 468.313 93.1069 466.719 91.5134C465.126 89.9198 463.009 88.9562 460.761 88.8006H400.58C398.284 88.8958 396.102 89.8317 394.451 91.4304C392.799 93.0291 391.793 95.179 391.623 97.4713C391.697 99.7969 392.674 102.002 394.346 103.621C396.017 105.239 398.253 106.143 400.58 106.142H441.446L391.346 166.039C389.918 167.664 389.122 169.749 389.105 171.912C389.224 174.224 390.214 176.406 391.876 178.018C393.537 179.63 395.748 180.554 398.062 180.603V180.599ZM479.536 134.692C479.55 132.321 480.499 130.051 482.176 128.376C483.853 126.7 486.123 125.753 488.494 125.741H554.547C551.186 112.305 540.541 101.95 526.555 101.95C522.26 101.779 517.981 102.557 514.022 104.229C510.062 105.9 506.52 108.424 503.648 111.621C501.935 112.986 499.767 113.649 497.583 113.475C495.4 113.301 493.364 112.303 491.889 110.684C490.399 109.184 489.491 107.203 489.326 105.095C489.161 102.987 489.75 100.889 490.988 99.1755C495.54 94.3398 501.06 90.5175 507.189 87.9577C513.317 85.3978 519.915 84.1579 526.555 84.3187C553.987 84.3187 573.576 108.663 573.576 134.692C573.576 160.44 553.984 184.795 526.555 184.795C499.125 184.795 479.536 160.427 479.536 134.692ZM498.572 143.362C501.927 156.235 512.578 167.153 526.558 167.153C540.278 167.153 550.902 156.235 554.551 143.362H498.572ZM630.702 85.9827C621.303 86.3998 612.365 90.1731 605.511 96.6176V94.9502C605.511 92.6117 604.582 90.3689 602.928 88.7154C601.275 87.0618 599.032 86.1328 596.693 86.1328C594.355 86.1328 592.112 87.0618 590.459 88.7154C588.805 90.3689 587.876 92.6117 587.876 94.9502V173.876C587.876 176.215 588.805 178.458 590.459 180.111C592.112 181.765 594.355 182.694 596.693 182.694C599.032 182.694 601.275 181.765 602.928 180.111C604.582 178.458 605.511 176.215 605.511 173.876V139.177C605.511 122.379 615.585 107.266 631.826 103.627C632.935 103.571 634.021 103.292 635.019 102.808C636.018 102.323 636.909 101.643 637.64 100.808C638.371 99.9722 638.926 98.9983 639.273 97.9439C639.62 96.8896 639.751 95.7762 639.66 94.67C639.544 92.3581 638.555 90.1764 636.892 88.5661C635.229 86.9558 633.017 86.0371 630.702 85.9961V85.9827ZM748.73 134.405C748.73 160.437 729.144 184.785 701.708 184.785C690.218 184.533 679.2 180.167 670.657 172.479V223.703C670.657 226.041 669.728 228.284 668.075 229.937C666.421 231.591 664.178 232.52 661.84 232.52C659.501 232.52 657.259 231.591 655.605 229.937C653.952 228.284 653.023 226.041 653.023 223.703V94.67C653.023 92.3315 653.952 90.0888 655.605 88.4352C657.259 86.7816 659.501 85.8527 661.84 85.8527C664.178 85.8527 666.421 86.7816 668.075 88.4352C669.728 90.0888 670.657 92.3315 670.657 94.67V96.631C679.3 89.0961 690.264 84.7506 701.722 84.3187C729.144 84.3187 748.73 108.666 748.73 134.415V134.405ZM731.095 134.405C731.095 117.614 718.783 101.94 701.708 101.94C684.367 101.94 672.321 117.614 672.321 134.405C672.321 151.479 684.357 167.153 701.708 167.153C718.786 167.163 731.098 151.489 731.098 134.415L731.095 134.405ZM852.978 134.122C852.978 160.437 833.392 184.501 805.956 184.501C778.52 184.501 758.935 160.434 758.935 134.122C758.935 108.376 778.527 84.0218 805.956 84.0218C833.385 84.0218 852.981 108.403 852.981 134.135L852.978 134.122ZM835.069 134.122C835.069 117.614 823.317 101.94 805.959 101.94C788.885 101.94 776.573 117.614 776.573 134.122C776.573 151.196 788.885 166.87 805.959 166.87C823.317 166.883 835.066 151.209 835.066 134.135L835.069 134.122ZM999.178 103.537C1001.5 103.537 1003.72 102.615 1005.37 100.974C1007.01 99.3333 1007.93 97.1076 1007.93 94.7868C1007.93 92.4659 1007.01 90.2402 1005.37 88.5991C1003.72 86.9581 1001.5 86.0361 999.178 86.0361H987.152V62.3819C987.152 60.0611 986.23 57.8353 984.589 56.1943C982.948 54.5532 980.723 53.6312 978.402 53.6312C976.081 53.6312 973.855 54.5532 972.214 56.1943C970.573 57.8353 969.651 60.0611 969.651 62.3819V152.87C969.644 159.752 971.668 166.483 975.47 172.22C979.272 177.957 984.683 182.444 991.024 185.118C992.086 185.585 993.229 185.837 994.389 185.858C995.548 185.879 996.701 185.669 997.778 185.241C998.856 184.813 999.838 184.175 1000.67 183.364C1001.5 182.553 1002.16 181.585 1002.61 180.517C1003.06 179.449 1003.29 178.302 1003.3 177.142C1003.3 175.982 1003.08 174.833 1002.63 173.762C1002.19 172.69 1001.54 171.717 1000.71 170.9C999.892 170.083 998.915 169.437 997.841 169.001C994.669 167.663 991.962 165.419 990.061 162.549C988.16 159.68 987.148 156.312 987.152 152.87V103.551L999.178 103.537ZM302.425 223.719H291.634V211.684H287.515V239.76H291.634V227.488H302.425V239.76H306.544V211.684H302.425V223.719ZM329.771 219.167C330.14 223.512 330.14 227.881 329.771 232.226C329.692 232.738 329.567 233.241 329.398 233.73C329.234 234.114 329.064 234.518 328.857 234.944C328.013 236.467 326.778 237.737 325.28 238.624C323.782 239.511 322.074 239.982 320.333 239.99C319.047 240.002 317.771 239.75 316.585 239.251C315.399 238.751 314.328 238.014 313.437 237.085C311.621 235.188 310.618 232.655 310.642 230.029V224.316H325.919C325.938 222.894 325.843 221.472 325.636 220.064C325.504 219.201 325.133 218.393 324.565 217.73C324.106 217.129 323.521 216.635 322.851 216.282C322.075 215.892 321.219 215.686 320.35 215.682C319.126 215.675 317.938 216.093 316.989 216.866C316.117 217.644 315.482 218.65 315.154 219.771H310.789C311.173 217.514 312.27 215.441 313.921 213.855C315.525 212.459 317.54 211.623 319.662 211.474C321.784 211.326 323.896 211.872 325.679 213.031C327.006 213.906 328.097 215.095 328.854 216.493C329.318 217.327 329.631 218.237 329.778 219.18L329.771 219.167ZM325.893 228.318H314.758V229.785C314.71 231.364 315.286 232.898 316.362 234.054C316.863 234.608 317.478 235.046 318.165 235.34C318.851 235.634 319.594 235.775 320.34 235.755C321.217 235.781 322.084 235.56 322.841 235.118C323.518 234.787 324.107 234.303 324.562 233.704C325.132 233.029 325.503 232.209 325.633 231.336C325.794 230.342 325.883 229.338 325.899 228.331L325.893 228.318ZM469.755 219.167C470.124 223.512 470.124 227.881 469.755 232.226C469.676 232.738 469.551 233.241 469.382 233.73C469.218 234.114 469.048 234.518 468.842 234.944C467.999 236.468 466.765 237.739 465.267 238.626C463.77 239.513 462.062 239.984 460.321 239.99C459.033 240.002 457.756 239.75 456.569 239.251C455.382 238.751 454.31 238.014 453.418 237.085C451.602 235.188 450.599 232.655 450.623 230.029V224.316H465.907C465.921 222.893 465.824 221.472 465.617 220.064C465.485 219.203 465.117 218.394 464.553 217.73C464.089 217.13 463.503 216.636 462.832 216.282C462.056 215.892 461.2 215.686 460.331 215.682C459.107 215.675 457.919 216.093 456.969 216.866C456.098 217.642 455.465 218.649 455.142 219.771H450.77C451.154 217.514 452.251 215.441 453.901 213.855C455.507 212.458 457.523 211.622 459.646 211.473C461.769 211.325 463.882 211.872 465.667 213.031C466.992 213.906 468.08 215.095 468.835 216.493C469.303 217.326 469.617 218.236 469.762 219.18L469.755 219.167ZM465.877 228.318H454.742V229.785C454.694 231.364 455.27 232.898 456.346 234.054C456.847 234.608 457.462 235.046 458.149 235.34C458.836 235.634 459.578 235.775 460.324 235.755C461.201 235.781 462.068 235.56 462.825 235.118C463.503 234.789 464.092 234.305 464.546 233.704C465.119 233.031 465.49 232.21 465.617 231.336C465.785 230.343 465.879 229.339 465.897 228.331L465.877 228.318ZM604.497 219.167C604.866 223.512 604.866 227.881 604.497 232.226C604.421 232.739 604.296 233.242 604.124 233.73C603.96 234.114 603.79 234.518 603.583 234.944C602.741 236.468 601.507 237.739 600.009 238.626C598.511 239.513 596.804 239.984 595.063 239.99C593.775 240.002 592.498 239.75 591.311 239.251C590.124 238.751 589.052 238.014 588.159 237.085C586.348 235.185 585.346 232.654 585.365 230.029V224.316H600.649C600.663 222.894 600.568 221.472 600.362 220.064C600.23 219.203 599.862 218.395 599.298 217.73C598.835 217.13 598.248 216.636 597.577 216.282C596.801 215.891 595.945 215.686 595.076 215.682C593.852 215.676 592.664 216.094 591.714 216.866C590.845 217.644 590.212 218.65 589.887 219.771H585.515C585.899 217.514 586.996 215.441 588.646 213.855C590.252 212.458 592.268 211.622 594.391 211.473C596.514 211.325 598.627 211.872 600.412 213.031C601.737 213.906 602.826 215.095 603.58 216.493C604.047 217.326 604.36 218.236 604.504 219.18L604.497 219.167ZM600.625 228.331H589.49V229.799C589.443 231.377 590.019 232.911 591.094 234.067C591.596 234.621 592.211 235.059 592.898 235.353C593.584 235.646 594.326 235.788 595.073 235.768C595.952 235.794 596.82 235.573 597.581 235.131C598.256 234.799 598.845 234.315 599.301 233.717C599.869 233.042 600.237 232.222 600.365 231.349C600.528 230.351 600.615 229.342 600.625 228.331ZM347.653 227.311L353.949 239.773H349.057L343.431 227.768H338.158V239.773H334.04V211.697H344.665C346.678 211.609 348.653 212.266 350.214 213.541C351.085 214.275 351.78 215.196 352.247 216.235C352.713 217.274 352.939 218.405 352.908 219.544C352.993 221.233 352.527 222.904 351.578 224.304C350.63 225.705 349.252 226.759 347.653 227.308V227.311ZM344.401 224.003C345.047 224.037 345.692 223.93 346.292 223.689C346.893 223.448 347.433 223.08 347.876 222.609C348.642 221.767 349.052 220.661 349.02 219.524C349.063 218.923 348.961 218.32 348.724 217.766C348.486 217.212 348.12 216.723 347.656 216.339C346.779 215.702 345.706 215.393 344.625 215.469H338.155V224.006L344.401 224.003ZM372.021 224.153L366.255 211.697H361.889L370.073 228.225V239.773H373.958V228.218L382.152 211.697H377.786L372.021 224.153ZM384.58 239.773H401.954V235.771H388.695V227.504H400.01V223.736H388.695V215.699H401.951V211.697H384.576L384.58 239.773ZM418.805 227.311L425.102 239.773H420.209L414.583 227.768H409.304V239.773H405.202V211.697H415.827C417.841 211.609 419.816 212.266 421.376 213.541C422.248 214.275 422.943 215.196 423.409 216.235C423.876 217.274 424.102 218.405 424.071 219.544C424.155 221.235 423.686 222.907 422.736 224.307C421.785 225.708 420.404 226.761 418.802 227.308L418.805 227.311ZM415.547 224.003C416.194 224.038 416.841 223.931 417.442 223.69C418.043 223.449 418.585 223.08 419.029 222.609C419.794 221.767 420.204 220.661 420.173 219.524C420.215 218.923 420.114 218.32 419.876 217.766C419.639 217.212 419.273 216.723 418.809 216.339C417.932 215.702 416.859 215.393 415.777 215.469H409.308V224.006L415.547 224.003ZM447.172 219.741C447.305 220.901 447.375 222.896 447.375 225.743C447.422 227.853 447.311 229.963 447.042 232.056C446.954 232.611 446.803 233.154 446.591 233.674C446.364 234.17 446.109 234.653 445.828 235.121C445.004 236.471 443.858 237.595 442.493 238.393C440.945 239.357 439.146 239.84 437.324 239.78H428.09V211.704H437.607C439.292 211.647 440.959 212.061 442.422 212.898C443.884 213.735 445.086 214.962 445.891 216.443C446.539 217.443 446.974 218.565 447.168 219.741H447.172ZM443.256 225.884C443.256 223.442 443.196 221.692 443.09 220.634C442.987 219.695 442.618 218.804 442.026 218.067C441.494 217.281 440.765 216.648 439.913 216.232C439.06 215.815 438.114 215.629 437.167 215.692H432.238V235.765H437.167C438.15 235.842 439.136 235.655 440.023 235.223C440.91 234.792 441.666 234.131 442.213 233.31C442.702 232.635 443.004 231.842 443.09 231.013C443.193 230.105 443.253 228.398 443.253 225.884H443.256ZM492.946 223.749C491.652 223.586 490.638 223.436 489.884 223.309C488.786 223.17 487.76 222.684 486.957 221.922C486.376 221.335 486.049 220.546 486.043 219.721C486.016 219.142 486.125 218.566 486.362 218.037C486.599 217.509 486.957 217.044 487.407 216.679C488.318 215.995 489.436 215.642 490.575 215.679C492.986 215.719 495.331 216.472 497.315 217.843L499.612 214.345C497.054 212.472 493.969 211.458 490.798 211.447C488.413 211.315 486.074 212.134 484.292 213.725C483.501 214.491 482.882 215.415 482.473 216.438C482.065 217.46 481.878 218.557 481.924 219.657C481.877 221.566 482.551 223.423 483.812 224.856C485.223 226.343 487.111 227.287 489.147 227.524L492.749 228.048C495.141 228.468 496.324 229.726 496.297 231.823C496.249 234.377 494.454 235.682 490.915 235.738C488.085 235.769 485.34 234.774 483.188 232.937L480.484 236.142C483.339 238.679 487.046 240.046 490.865 239.97C497.09 239.899 500.273 237.175 500.413 231.8C500.44 229.894 499.799 228.039 498.602 226.557C497.154 224.923 495.127 223.916 492.949 223.749H492.946ZM503.894 209.766H508.013V205.534H503.894V209.766ZM503.894 239.78H508.013V211.704H503.894V239.78ZM511.264 215.472H523.493L511.154 236.255V239.777H528.522V235.775H515.753L528.522 214.902V211.704H511.254L511.264 215.472ZM531.86 209.773H535.979V205.541H531.86V209.773ZM531.86 239.787H535.979V211.71H531.86V239.787ZM556.872 231.669H556.799L544.479 211.71H540.598V239.787H544.71V219.827H544.786L557.082 239.787H560.984V211.71H556.865L556.872 231.669ZM569.971 211.71H565.859V239.787H583.227V235.785H569.971V211.71ZM941.278 148.988C939.994 148.93 938.715 149.178 937.547 149.714C936.379 150.249 935.355 151.056 934.562 152.066C932.091 156.459 928.523 160.136 924.205 162.735C919.887 165.335 914.969 166.769 909.93 166.897C892.856 166.897 880.82 151.223 880.82 134.432C880.82 117.641 892.856 101.967 909.93 101.967C914.969 102.094 919.887 103.528 924.205 106.128C928.523 108.727 932.091 112.404 934.562 116.797C935.355 117.808 936.378 118.615 937.547 119.15C938.715 119.685 939.994 119.934 941.278 119.875C942.458 119.89 943.63 119.669 944.724 119.224C945.818 118.779 946.811 118.12 947.646 117.285C948.481 116.45 949.14 115.457 949.585 114.363C950.029 113.27 950.251 112.098 950.235 110.918C949.696 106.313 947.387 102.098 943.796 99.1654C939.453 94.5235 934.211 90.8142 928.389 88.2635C922.567 85.7127 916.287 84.374 909.93 84.3286C882.498 84.3286 863.186 108.673 863.186 134.432C863.186 157.309 878.476 178.982 901.11 183.554V194.559C901.11 196.898 902.039 199.14 903.692 200.794C905.346 202.448 907.588 203.377 909.927 203.377C912.265 203.377 914.508 202.448 916.162 200.794C917.815 199.14 918.744 196.898 918.744 194.559V183.604C928.319 181.644 937.062 176.795 943.796 169.711C947.387 166.779 949.696 162.564 950.235 157.959C950.255 156.776 950.037 155.601 949.594 154.503C949.152 153.406 948.493 152.409 947.658 151.571C946.822 150.733 945.827 150.071 944.731 149.624C943.635 149.178 942.461 148.956 941.278 148.972V148.988Z" fill="white"/>
</svg>
